<?xml version="1.0" encoding="iso-8859-1"?>
<!-- Uploaded to: SVG Repo, www.svgrepo.com, Generator: SVG Repo Mixer Tools -->
<svg fill="#000000" height="800px" width="800px" version="1.1" id="Layer_1" xmlns="http://www.w3.org/2000/svg" xmlns:xlink="http://www.w3.org/1999/xlink" 
	 viewBox="0 0 512.001 512.001" xml:space="preserve">
<g>
	<g>
		<path d="M509.643,278.984c0.394,0.407,0.785,0.811-0.003-0.004c-0.788-0.814-0.398-0.411-0.004-0.003
			c-1.58-1.631-3.754-2.552-6.026-2.552h-38.52c-6.169,0-8.197,4.045-8.382,8.051c-1.766,37.992-15.625,74.47-39.889,103.624
			l-94.897-94.897h36.825h51.137c4.633,0,8.389-3.755,8.389-8.389c0-4.634-3.756-8.389-8.389-8.389h-51.137H301.67
			c-3.394,0-6.452,2.044-7.75,5.179s-0.581,6.743,1.819,9.143L411.29,406.299h0.001l27.207,27.207
			c3.393,3.391,8.986,3.148,12.133-0.22c37.741-40.38,59.534-93.01,61.365-148.193C512.07,282.82,511.221,280.617,509.643,278.984z
			 M444.13,415.41l-15.406-15.406c25.486-30.122,40.979-67.521,44.247-106.804l21.789,0.001
			C491.406,338.289,473.664,381.116,444.13,415.41z"/>
	</g>
</g>
<g>
	<g>
		<path d="M456.771,255.972c-0.016-124.376-103.979-228.34-228.356-228.356c-72.012,0-141.23,35.039-183.948,92.957
			c-2.749,3.729-1.956,8.981,1.772,11.731s8.981,1.957,11.731-1.773c4.65-6.304,9.664-12.342,14.988-18.095l15.424,15.424
			c-29.196,31.873-47.674,73.709-49.687,119.751H16.962c0.504-12.875,2.148-25.667,4.944-38.132
			c1.015-4.521-1.829-9.008-6.349-10.022c-4.518-1.013-9.008,1.829-10.022,6.35C1.862,222.18,0,239.067,0,256.001
			c0,124.397,103.986,228.386,228.386,228.386c60.806,0,117.858-23.568,160.939-66.391c3.797-3.18,5.626-9.513,1.622-13.497
			L250.138,264.391l198.244-0.001h0.001c4.633,0,8.389-3.755,8.389-8.389C456.772,255.991,456.771,255.982,456.771,255.972z
			 M100.248,139.727l107.884,107.884H55.484C57.471,206.193,74.076,168.543,100.248,139.727z M208.13,264.39L100.247,372.273
			c-26.172-28.816-42.776-66.466-44.763-107.883H208.13z M16.959,264.39h21.735c2.012,46.041,20.489,87.877,49.685,119.75
			L73.019,399.5C39.905,363.673,18.998,316.416,16.959,264.39z M219.996,467.427c-52.028-2.039-99.286-22.946-135.112-56.062
			l15.36-15.361c31.873,29.197,73.71,47.675,119.752,49.689V467.427z M219.996,428.903c-41.418-1.987-79.07-18.593-107.885-44.766
			l107.885-107.885V428.903z M219.996,235.747L112.112,127.863c28.816-26.173,66.466-42.779,107.884-44.765V235.747z
			 M219.996,66.309c-46.041,2.012-87.878,20.491-119.751,49.688l-15.409-15.409c14.001-12.929,29.705-24.005,46.586-32.723
			c27.677-14.295,57.438-22.101,88.574-23.291V66.309z M236.775,44.573c52.028,2.039,99.292,22.939,135.118,56.053l-15.368,15.368
			c-31.874-29.196-73.709-47.673-119.751-49.685V44.573z M236.775,83.095c41.418,1.985,79.064,18.598,107.881,44.769
			L236.775,235.745V83.095z M371.947,411.426c-37.157,34.405-84.549,54.049-135.172,56.006v-21.735
			c44.783-1.934,86.759-19.329,119.8-49.643L371.947,411.426z M344.7,384.18c-29.854,27.16-67.626,42.819-107.926,44.729V276.254
			L344.7,384.18z M248.637,247.61l107.884-107.884c26.173,28.817,42.786,66.466,44.774,107.884H248.637z M418.079,247.612
			c-2.012-46.042-20.492-87.88-49.689-119.753l15.361-15.361c33.118,35.826,54.042,83.082,56.078,135.114H418.079z"/>
	</g>
</g>
<g>
	<g>
		<path d="M178.617,105.191c-14.288,0-25.913,11.625-25.913,25.912c0,14.288,11.625,25.913,25.913,25.913
			s25.913-11.625,25.913-25.913C204.53,116.816,192.905,105.191,178.617,105.191z M178.617,140.238
			c-5.037,0-9.135-4.098-9.135-9.135c0-5.037,4.098-9.134,9.135-9.134s9.135,4.097,9.135,9.134
			C187.752,136.14,183.654,140.238,178.617,140.238z"/>
	</g>
</g>
<g>
	<g>
		<path d="M102.928,181.73c-14.288,0-25.913,11.625-25.913,25.913s11.625,25.913,25.913,25.913
			c14.288,0,25.913-11.625,25.913-25.913S117.216,181.73,102.928,181.73z M102.928,216.778c-5.037,0-9.135-4.098-9.135-9.135
			s4.098-9.135,9.135-9.135c5.037,0,9.135,4.098,9.135,9.135S107.965,216.778,102.928,216.778z"/>
	</g>
</g>
<g>
	<g>
		<path d="M102.928,281.629c-14.288,0-25.913,11.625-25.913,25.912c0.001,14.288,11.625,25.913,25.913,25.913
			s25.913-11.625,25.913-25.913C128.841,293.254,117.216,281.629,102.928,281.629z M102.928,316.676
			c-5.037,0-9.135-4.098-9.135-9.135c0-5.037,4.098-9.134,9.135-9.134c5.037,0,9.135,4.097,9.135,9.134
			C112.063,312.577,107.965,316.676,102.928,316.676z"/>
	</g>
</g>
<g>
	<g>
		<path d="M178.617,353.956c-14.288,0-25.913,11.625-25.913,25.913c0,14.288,11.625,25.912,25.913,25.912
			s25.913-11.625,25.913-25.912C204.53,365.581,192.905,353.956,178.617,353.956z M178.617,389.003
			c-5.037,0-9.135-4.097-9.135-9.134s4.098-9.135,9.135-9.135s9.135,4.098,9.135,9.135
			C187.752,384.905,183.654,389.003,178.617,389.003z"/>
	</g>
</g>
<g>
	<g>
		<path d="M275.602,351.159c-14.288,0-25.913,11.625-25.913,25.913s11.625,25.913,25.913,25.913s25.913-11.625,25.913-25.913
			S289.891,351.159,275.602,351.159z M275.602,386.207c-5.037,0-9.135-4.098-9.135-9.135c0-5.037,4.098-9.135,9.135-9.135
			c5.037,0,9.135,4.098,9.135,9.135C284.737,382.109,280.639,386.207,275.602,386.207z"/>
	</g>
</g>
<g>
	<g>
		<path d="M348.266,181.73c-14.288,0-25.913,11.625-25.913,25.913s11.625,25.913,25.913,25.913s25.913-11.625,25.913-25.913
			S362.554,181.73,348.266,181.73z M348.266,216.778c-5.037,0-9.135-4.098-9.135-9.135s4.098-9.135,9.135-9.135
			c5.037,0,9.135,4.098,9.135,9.135S353.303,216.778,348.266,216.778z"/>
	</g>
</g>
<g>
	<g>
		<path d="M405.312,299.152c-14.288,0-25.913,11.625-25.913,25.913s11.625,25.913,25.913,25.913s25.913-11.625,25.913-25.913
			S419.6,299.152,405.312,299.152z M405.312,334.2c-5.037,0-9.135-4.098-9.135-9.135c0-5.037,4.098-9.135,9.135-9.135
			c5.037,0,9.135,4.098,9.135,9.135C414.447,330.102,410.348,334.2,405.312,334.2z"/>
	</g>
</g>
<g>
	<g>
		<path d="M275.602,105.191c-14.288,0-25.913,11.625-25.913,25.912c0.001,14.288,11.625,25.913,25.913,25.913
			s25.913-11.625,25.913-25.913C301.516,116.816,289.891,105.191,275.602,105.191z M275.602,140.238
			c-5.037,0-9.135-4.098-9.135-9.135c0-5.037,4.098-9.134,9.135-9.134s9.135,4.097,9.135,9.134
			C284.738,136.14,280.639,140.238,275.602,140.238z"/>
	</g>
</g>
</svg>